<svg xmlns="http://www.w3.org/2000/svg" xmlns:xlink="http://www.w3.org/1999/xlink" width="40" zoomAndPan="magnify" viewBox="0 0 30 30.000001" height="40" preserveAspectRatio="xMidYMid meet" version="1.2"><defs><clipPath id="9aeb0ab46b"><path d="M 0.484375 2.640625 L 29.515625 2.640625 L 29.515625 16 L 0.484375 16 Z M 0.484375 2.640625 "/></clipPath><clipPath id="3d89649525"><path d="M 0.484375 13 L 29.515625 13 L 29.515625 26.589844 L 0.484375 26.589844 Z M 0.484375 13 "/></clipPath></defs><g id="c9837b545f"><g clip-rule="nonzero" clip-path="url(#9aeb0ab46b)"><path style=" stroke:none;fill-rule:nonzero;fill:#000000;fill-opacity:1;" d="M 28.191406 15.945312 C 27.933594 15.945312 27.675781 15.917969 27.421875 15.867188 C 27.167969 15.816406 26.917969 15.742188 26.679688 15.640625 C 26.4375 15.539062 26.210938 15.417969 25.996094 15.273438 C 25.777344 15.125 25.578125 14.960938 25.394531 14.773438 C 25.210938 14.589844 25.046875 14.386719 24.902344 14.171875 C 24.757812 13.953125 24.636719 13.722656 24.539062 13.480469 C 24.4375 13.238281 24.363281 12.988281 24.3125 12.730469 C 24.261719 12.476562 24.234375 12.214844 24.234375 11.953125 L 24.234375 6.632812 C 24.234375 6.453125 24.203125 6.285156 24.132812 6.121094 C 24.066406 5.960938 23.972656 5.816406 23.847656 5.691406 C 23.726562 5.566406 23.582031 5.46875 23.421875 5.402344 C 23.257812 5.335938 23.089844 5.300781 22.914062 5.300781 L 7.085938 5.300781 C 6.910156 5.300781 6.742188 5.335938 6.578125 5.402344 C 6.417969 5.46875 6.273438 5.566406 6.152344 5.691406 C 6.027344 5.816406 5.933594 5.960938 5.867188 6.121094 C 5.796875 6.285156 5.765625 6.453125 5.765625 6.632812 L 5.765625 11.953125 C 5.765625 12.214844 5.738281 12.476562 5.6875 12.730469 C 5.636719 12.988281 5.5625 13.238281 5.460938 13.480469 C 5.363281 13.722656 5.242188 13.953125 5.097656 14.171875 C 4.953125 14.386719 4.789062 14.589844 4.605469 14.773438 C 4.421875 14.960938 4.222656 15.125 4.003906 15.273438 C 3.789062 15.417969 3.5625 15.539062 3.320312 15.640625 C 3.082031 15.742188 2.832031 15.816406 2.578125 15.867188 C 2.324219 15.917969 2.066406 15.945312 1.808594 15.945312 C 1.632812 15.945312 1.464844 15.910156 1.300781 15.84375 C 1.140625 15.777344 0.996094 15.679688 0.875 15.554688 C 0.75 15.429688 0.65625 15.289062 0.589844 15.125 C 0.519531 14.960938 0.488281 14.792969 0.488281 14.613281 C 0.488281 14.4375 0.519531 14.269531 0.589844 14.105469 C 0.65625 13.941406 0.75 13.800781 0.875 13.675781 C 0.996094 13.550781 1.140625 13.453125 1.300781 13.386719 C 1.464844 13.316406 1.632812 13.285156 1.808594 13.285156 C 1.980469 13.285156 2.148438 13.25 2.3125 13.183594 C 2.472656 13.117188 2.617188 13.019531 2.738281 12.894531 C 2.863281 12.769531 2.957031 12.625 3.027344 12.464844 C 3.09375 12.300781 3.125 12.128906 3.125 11.953125 L 3.125 6.632812 C 3.125 6.371094 3.152344 6.109375 3.203125 5.851562 C 3.253906 5.597656 3.328125 5.347656 3.429688 5.105469 C 3.527344 4.863281 3.648438 4.632812 3.792969 4.414062 C 3.9375 4.195312 4.101562 3.996094 4.285156 3.808594 C 4.46875 3.625 4.671875 3.457031 4.886719 3.3125 C 5.101562 3.167969 5.332031 3.042969 5.570312 2.945312 C 5.808594 2.84375 6.058594 2.769531 6.3125 2.714844 C 6.566406 2.664062 6.824219 2.640625 7.085938 2.640625 L 22.914062 2.640625 C 23.175781 2.640625 23.433594 2.664062 23.6875 2.714844 C 23.941406 2.769531 24.191406 2.84375 24.429688 2.945312 C 24.667969 3.042969 24.898438 3.167969 25.113281 3.3125 C 25.328125 3.457031 25.53125 3.625 25.714844 3.808594 C 25.898438 3.996094 26.0625 4.195312 26.207031 4.414062 C 26.351562 4.632812 26.472656 4.863281 26.570312 5.105469 C 26.671875 5.347656 26.746094 5.597656 26.796875 5.851562 C 26.847656 6.109375 26.875 6.371094 26.875 6.632812 L 26.875 11.953125 C 26.875 12.128906 26.90625 12.300781 26.972656 12.464844 C 27.042969 12.625 27.136719 12.769531 27.261719 12.894531 C 27.382812 13.019531 27.527344 13.117188 27.6875 13.183594 C 27.851562 13.25 28.019531 13.285156 28.191406 13.285156 C 28.367188 13.285156 28.535156 13.316406 28.699219 13.386719 C 28.859375 13.453125 29.003906 13.550781 29.125 13.675781 C 29.25 13.800781 29.34375 13.941406 29.410156 14.105469 C 29.480469 14.269531 29.511719 14.4375 29.511719 14.613281 C 29.511719 14.792969 29.480469 14.960938 29.410156 15.125 C 29.34375 15.289062 29.25 15.429688 29.125 15.554688 C 29.003906 15.679688 28.859375 15.777344 28.699219 15.84375 C 28.535156 15.910156 28.367188 15.945312 28.191406 15.945312 Z M 28.191406 15.945312 "/></g><g clip-rule="nonzero" clip-path="url(#3d89649525)"><path style=" stroke:none;fill-rule:nonzero;fill:#000000;fill-opacity:1;" d="M 22.914062 26.589844 L 7.085938 26.589844 C 6.824219 26.589844 6.566406 26.566406 6.3125 26.511719 C 6.058594 26.460938 5.808594 26.386719 5.570312 26.285156 C 5.332031 26.1875 5.101562 26.0625 4.886719 25.917969 C 4.671875 25.769531 4.46875 25.605469 4.285156 25.421875 C 4.101562 25.234375 3.9375 25.035156 3.792969 24.816406 C 3.648438 24.597656 3.527344 24.367188 3.429688 24.125 C 3.328125 23.882812 3.253906 23.632812 3.203125 23.378906 C 3.152344 23.121094 3.125 22.859375 3.125 22.597656 L 3.125 17.277344 C 3.125 17.101562 3.09375 16.929688 3.027344 16.765625 C 2.957031 16.605469 2.863281 16.460938 2.738281 16.335938 C 2.617188 16.210938 2.472656 16.113281 2.3125 16.046875 C 2.148438 15.980469 1.980469 15.945312 1.808594 15.945312 C 1.632812 15.945312 1.464844 15.910156 1.300781 15.84375 C 1.140625 15.777344 0.996094 15.679688 0.875 15.554688 C 0.75 15.429688 0.65625 15.289062 0.589844 15.125 C 0.519531 14.960938 0.488281 14.792969 0.488281 14.613281 C 0.488281 14.4375 0.519531 14.269531 0.589844 14.105469 C 0.65625 13.941406 0.75 13.800781 0.875 13.675781 C 0.996094 13.550781 1.140625 13.453125 1.300781 13.386719 C 1.464844 13.316406 1.632812 13.285156 1.808594 13.285156 C 2.066406 13.285156 2.324219 13.308594 2.578125 13.363281 C 2.832031 13.414062 3.082031 13.488281 3.320312 13.589844 C 3.5625 13.691406 3.789062 13.8125 4.003906 13.957031 C 4.222656 14.105469 4.421875 14.269531 4.605469 14.453125 C 4.789062 14.640625 4.953125 14.839844 5.097656 15.058594 C 5.242188 15.277344 5.363281 15.507812 5.460938 15.75 C 5.5625 15.992188 5.636719 16.242188 5.6875 16.496094 C 5.738281 16.753906 5.765625 17.015625 5.765625 17.277344 L 5.765625 22.597656 C 5.765625 22.777344 5.796875 22.945312 5.867188 23.109375 C 5.933594 23.269531 6.027344 23.414062 6.152344 23.539062 C 6.273438 23.664062 6.417969 23.761719 6.578125 23.828125 C 6.742188 23.894531 6.910156 23.929688 7.085938 23.929688 L 22.914062 23.929688 C 23.089844 23.929688 23.257812 23.894531 23.421875 23.828125 C 23.582031 23.761719 23.726562 23.664062 23.847656 23.539062 C 23.972656 23.414062 24.066406 23.269531 24.132812 23.109375 C 24.203125 22.945312 24.234375 22.777344 24.234375 22.597656 L 24.234375 17.277344 C 24.234375 17.015625 24.261719 16.753906 24.3125 16.496094 C 24.363281 16.242188 24.4375 15.992188 24.539062 15.75 C 24.636719 15.507812 24.757812 15.277344 24.902344 15.058594 C 25.046875 14.839844 25.210938 14.640625 25.394531 14.453125 C 25.578125 14.269531 25.777344 14.105469 25.996094 13.957031 C 26.210938 13.8125 26.4375 13.691406 26.679688 13.589844 C 26.917969 13.488281 27.167969 13.414062 27.421875 13.363281 C 27.675781 13.308594 27.933594 13.285156 28.191406 13.285156 C 28.367188 13.285156 28.535156 13.316406 28.699219 13.386719 C 28.859375 13.453125 29.003906 13.550781 29.125 13.675781 C 29.25 13.800781 29.34375 13.941406 29.410156 14.105469 C 29.480469 14.269531 29.511719 14.4375 29.511719 14.613281 C 29.511719 14.792969 29.480469 14.960938 29.410156 15.125 C 29.34375 15.289062 29.25 15.429688 29.125 15.554688 C 29.003906 15.679688 28.859375 15.777344 28.699219 15.84375 C 28.535156 15.910156 28.367188 15.945312 28.191406 15.945312 C 28.019531 15.945312 27.851562 15.980469 27.6875 16.046875 C 27.527344 16.113281 27.382812 16.210938 27.261719 16.335938 C 27.136719 16.460938 27.042969 16.605469 26.972656 16.765625 C 26.90625 16.929688 26.875 17.101562 26.875 17.277344 L 26.875 22.597656 C 26.875 22.859375 26.847656 23.121094 26.796875 23.378906 C 26.746094 23.632812 26.671875 23.882812 26.570312 24.125 C 26.472656 24.367188 26.351562 24.597656 26.207031 24.816406 C 26.0625 25.035156 25.898438 25.234375 25.714844 25.421875 C 25.53125 25.605469 25.328125 25.769531 25.113281 25.917969 C 24.898438 26.0625 24.667969 26.1875 24.429688 26.285156 C 24.191406 26.386719 23.941406 26.460938 23.6875 26.511719 C 23.433594 26.566406 23.175781 26.589844 22.914062 26.589844 Z M 22.914062 26.589844 "/></g><path style=" stroke:none;fill-rule:nonzero;fill:#000000;fill-opacity:1;" d="M 16.320312 21.269531 L 11.042969 21.269531 C 10.867188 21.269531 10.699219 21.234375 10.539062 21.167969 C 10.375 21.097656 10.234375 21.003906 10.109375 20.878906 C 9.984375 20.753906 9.890625 20.609375 9.824219 20.445312 C 9.757812 20.285156 9.722656 20.113281 9.722656 19.9375 L 9.722656 9.292969 C 9.722656 9.117188 9.757812 8.945312 9.824219 8.785156 C 9.890625 8.621094 9.984375 8.476562 10.109375 8.351562 C 10.234375 8.226562 10.375 8.128906 10.539062 8.0625 C 10.699219 7.996094 10.867188 7.960938 11.042969 7.960938 L 15.660156 7.960938 C 16.398438 7.960938 17.082031 8.15625 17.714844 8.542969 C 18.34375 8.929688 18.832031 9.453125 19.171875 10.113281 C 19.511719 10.773438 19.65625 11.476562 19.609375 12.21875 C 19.558594 12.964844 19.320312 13.640625 18.898438 14.25 C 19.203125 14.515625 19.460938 14.820312 19.675781 15.167969 C 19.890625 15.511719 20.046875 15.882812 20.148438 16.277344 C 20.25 16.671875 20.289062 17.070312 20.269531 17.480469 C 20.25 17.886719 20.167969 18.28125 20.027344 18.664062 C 19.886719 19.042969 19.695312 19.398438 19.445312 19.71875 C 19.199219 20.042969 18.910156 20.320312 18.578125 20.550781 C 18.246094 20.785156 17.890625 20.960938 17.503906 21.085938 C 17.117188 21.207031 16.722656 21.269531 16.320312 21.269531 Z M 12.363281 18.605469 L 16.320312 18.605469 C 16.496094 18.605469 16.664062 18.574219 16.824219 18.503906 C 16.984375 18.4375 17.128906 18.34375 17.253906 18.21875 C 17.375 18.09375 17.472656 17.949219 17.539062 17.785156 C 17.605469 17.621094 17.636719 17.453125 17.636719 17.277344 C 17.636719 17.101562 17.605469 16.929688 17.539062 16.765625 C 17.472656 16.605469 17.375 16.460938 17.253906 16.335938 C 17.128906 16.210938 16.984375 16.113281 16.824219 16.046875 C 16.664062 15.980469 16.496094 15.945312 16.320312 15.945312 L 12.363281 15.945312 Z M 12.363281 13.285156 L 15.660156 13.285156 C 15.835938 13.285156 16.003906 13.25 16.164062 13.183594 C 16.324219 13.117188 16.46875 13.019531 16.59375 12.894531 C 16.714844 12.769531 16.8125 12.625 16.878906 12.464844 C 16.945312 12.300781 16.980469 12.128906 16.980469 11.953125 C 16.980469 11.777344 16.945312 11.609375 16.878906 11.445312 C 16.8125 11.28125 16.714844 11.136719 16.59375 11.011719 C 16.46875 10.886719 16.324219 10.792969 16.164062 10.722656 C 16.003906 10.65625 15.835938 10.625 15.660156 10.625 L 12.363281 10.625 Z M 12.363281 13.285156 "/></g></svg>