<svg xmlns="http://www.w3.org/2000/svg" xmlns:xlink="http://www.w3.org/1999/xlink" width="40" zoomAndPan="magnify" viewBox="0 0 30 30.000001" height="40" preserveAspectRatio="xMidYMid meet" version="1.2"><defs><clipPath id="c382bab757"><path d="M 1.410156 0 L 28.265625 0 L 28.265625 29.03125 L 1.410156 29.03125 Z M 1.410156 0 "/></clipPath></defs><g id="5c7a709a9e"><g clip-rule="nonzero" clip-path="url(#c382bab757)"><path style=" stroke:none;fill-rule:nonzero;fill:#000000;fill-opacity:1;" d="M 28.132812 8.542969 L 19.824219 0.132812 C 19.742188 0.046875 19.625 0 19.507812 0 L 10.09375 0 C 7.90625 0 6.121094 1.804688 6.121094 4.019531 L 6.121094 11.976562 L 2.636719 11.976562 C 1.960938 11.976562 1.414062 12.53125 1.414062 13.210938 L 1.414062 20.320312 C 1.414062 21 1.960938 21.554688 2.636719 21.554688 L 6.121094 21.554688 L 6.121094 25.011719 C 6.121094 27.230469 7.90625 29.03125 10.09375 29.03125 L 24.292969 29.03125 C 26.484375 29.03125 28.265625 27.230469 28.265625 25.011719 L 28.265625 8.863281 C 28.265625 8.742188 28.21875 8.628906 28.132812 8.542969 Z M 19.957031 1.546875 L 26.734375 8.410156 L 20.402344 8.410156 C 20.15625 8.410156 19.957031 8.207031 19.957031 7.953125 Z M 2.308594 20.320312 L 2.308594 13.210938 C 2.308594 13.035156 2.457031 12.882812 2.636719 12.882812 L 21.777344 12.882812 C 21.957031 12.882812 22.105469 13.03125 22.105469 13.210938 L 22.105469 20.320312 C 22.105469 20.5 21.957031 20.648438 21.777344 20.648438 L 2.636719 20.648438 C 2.457031 20.648438 2.308594 20.496094 2.308594 20.320312 Z M 24.292969 28.125 L 10.09375 28.125 C 8.398438 28.125 7.019531 26.730469 7.019531 25.011719 L 7.019531 21.554688 L 21.777344 21.554688 C 22.453125 21.554688 23 21 23 20.320312 L 23 13.210938 C 23 12.53125 22.453125 11.976562 21.777344 11.976562 L 7.019531 11.976562 L 7.019531 4.019531 C 7.019531 2.304688 8.398438 0.90625 10.09375 0.90625 L 19.058594 0.90625 L 19.058594 7.953125 C 19.058594 8.707031 19.664062 9.316406 20.402344 9.316406 L 27.371094 9.316406 L 27.371094 25.011719 C 27.371094 26.730469 25.988281 28.125 24.292969 28.125 Z M 6.4375 15.796875 L 6.4375 17.738281 C 6.4375 18.292969 6.882812 18.746094 7.433594 18.746094 C 7.980469 18.746094 8.429688 18.292969 8.429688 17.738281 C 8.429688 17.488281 8.628906 17.285156 8.875 17.285156 C 9.125 17.285156 9.324219 17.488281 9.324219 17.738281 C 9.324219 18.792969 8.476562 19.652344 7.433594 19.652344 C 6.390625 19.652344 5.539062 18.792969 5.539062 17.738281 L 5.539062 15.796875 C 5.539062 14.738281 6.390625 13.878906 7.433594 13.878906 C 8.476562 13.878906 9.324219 14.738281 9.324219 15.796875 C 9.324219 16.046875 9.125 16.25 8.875 16.25 C 8.628906 16.25 8.429688 16.046875 8.429688 15.796875 C 8.429688 15.238281 7.980469 14.785156 7.433594 14.785156 C 6.882812 14.785156 6.4375 15.238281 6.4375 15.796875 Z M 11.277344 15.550781 C 11.277344 15.96875 11.371094 16.3125 12.515625 16.3125 C 13.425781 16.3125 14.167969 17.0625 14.167969 17.980469 C 14.167969 18.902344 13.425781 19.652344 12.515625 19.652344 L 11.800781 19.652344 C 11.019531 19.652344 10.382812 19.007812 10.382812 18.214844 C 10.382812 17.964844 10.582031 17.761719 10.828125 17.761719 C 11.078125 17.761719 11.277344 17.964844 11.277344 18.214844 C 11.277344 18.503906 11.515625 18.746094 11.800781 18.746094 L 12.515625 18.746094 C 12.933594 18.746094 13.269531 18.402344 13.269531 17.980469 C 13.269531 17.5625 12.933594 17.21875 12.515625 17.21875 C 12.136719 17.21875 11.582031 17.191406 11.140625 16.949219 C 10.792969 16.761719 10.382812 16.363281 10.382812 15.550781 C 10.382812 14.628906 11.121094 13.878906 12.03125 13.878906 L 12.746094 13.878906 C 13.53125 13.878906 14.167969 14.523438 14.167969 15.316406 C 14.167969 15.566406 13.964844 15.769531 13.71875 15.769531 C 13.472656 15.769531 13.269531 15.566406 13.269531 15.316406 C 13.269531 15.027344 13.03125 14.785156 12.746094 14.785156 L 12.03125 14.785156 C 11.617188 14.785156 11.277344 15.128906 11.277344 15.550781 Z M 15.988281 15.550781 C 15.988281 15.96875 16.082031 16.3125 17.226562 16.3125 C 18.136719 16.3125 18.875 17.0625 18.875 17.980469 C 18.875 18.902344 18.136719 19.652344 17.226562 19.652344 L 16.511719 19.652344 C 15.726562 19.652344 15.089844 19.007812 15.089844 18.214844 C 15.089844 17.964844 15.292969 17.761719 15.539062 17.761719 C 15.785156 17.761719 15.988281 17.964844 15.988281 18.214844 C 15.988281 18.507812 16.222656 18.746094 16.511719 18.746094 L 17.226562 18.746094 C 17.640625 18.746094 17.980469 18.402344 17.980469 17.980469 C 17.980469 17.5625 17.640625 17.21875 17.226562 17.21875 C 16.84375 17.21875 16.289062 17.191406 15.851562 16.949219 C 15.503906 16.761719 15.089844 16.363281 15.089844 15.550781 C 15.089844 14.628906 15.832031 13.878906 16.742188 13.878906 L 17.457031 13.878906 C 18.238281 13.878906 18.875 14.523438 18.875 15.316406 C 18.875 15.566406 18.675781 15.769531 18.425781 15.769531 C 18.179688 15.769531 17.980469 15.566406 17.980469 15.316406 C 17.980469 15.023438 17.746094 14.785156 17.457031 14.785156 L 16.742188 14.785156 C 16.324219 14.785156 15.988281 15.128906 15.988281 15.550781 Z M 15.988281 15.550781 "/></g></g></svg>