<svg xmlns="http://www.w3.org/2000/svg" xmlns:xlink="http://www.w3.org/1999/xlink" width="40" zoomAndPan="magnify" viewBox="0 0 30 30.000001" height="40" preserveAspectRatio="xMidYMid meet" version="1.2"><defs><clipPath id="2719d18004"><path d="M 0.878906 0 L 29.1875 0 L 29.1875 29 L 0.878906 29 Z M 0.878906 0 "/></clipPath></defs><g id="65dc8791c2"><g clip-rule="nonzero" clip-path="url(#2719d18004)"><path style=" stroke:none;fill-rule:nonzero;fill:#000000;fill-opacity:1;" d="M 15.070312 28.988281 C 14.902344 28.988281 14.738281 28.960938 14.578125 28.910156 L 5.167969 25.78125 C 4.882812 25.6875 4.648438 25.523438 4.457031 25.296875 C 4.265625 25.066406 4.148438 24.804688 4.109375 24.511719 L 0.972656 1.824219 C 0.941406 1.601562 0.957031 1.378906 1.023438 1.164062 C 1.085938 0.945312 1.195312 0.753906 1.34375 0.582031 C 1.492188 0.410156 1.671875 0.28125 1.875 0.1875 C 2.082031 0.0898438 2.300781 0.0429688 2.527344 0.046875 L 27.617188 0.046875 C 27.84375 0.046875 28.0625 0.0898438 28.265625 0.183594 C 28.472656 0.277344 28.652344 0.410156 28.800781 0.582031 C 28.949219 0.75 29.054688 0.945312 29.121094 1.160156 C 29.183594 1.378906 29.203125 1.597656 29.171875 1.824219 L 26.035156 24.507812 C 25.996094 24.804688 25.878906 25.066406 25.6875 25.292969 C 25.496094 25.523438 25.261719 25.6875 24.976562 25.78125 L 15.566406 28.910156 C 15.40625 28.960938 15.242188 28.988281 15.070312 28.988281 Z M 7.082031 23.121094 L 15.070312 25.773438 L 23.0625 23.113281 L 25.820312 3.175781 L 4.328125 3.175781 Z M 7.082031 23.121094 "/></g><path style=" stroke:none;fill-rule:nonzero;fill:#000000;fill-opacity:1;" d="M 15.070312 22.339844 C 14.917969 22.339844 14.769531 22.316406 14.621094 22.273438 L 10.699219 21.097656 C 10.421875 21.015625 10.1875 20.867188 9.992188 20.652344 C 9.796875 20.441406 9.671875 20.191406 9.613281 19.90625 L 9.457031 19.125 C 9.417969 18.929688 9.417969 18.730469 9.453125 18.535156 C 9.488281 18.335938 9.5625 18.152344 9.671875 17.980469 C 9.777344 17.8125 9.914062 17.667969 10.078125 17.550781 C 10.242188 17.433594 10.421875 17.351562 10.617188 17.300781 C 10.8125 17.253906 11.007812 17.242188 11.207031 17.269531 C 11.410156 17.296875 11.597656 17.359375 11.769531 17.460938 C 11.945312 17.558594 12.097656 17.6875 12.222656 17.84375 C 12.347656 18.003906 12.4375 18.175781 12.496094 18.371094 L 15.070312 19.140625 L 17.582031 18.390625 L 17.96875 15.691406 L 10.367188 15.691406 C 10.175781 15.6875 9.992188 15.65625 9.8125 15.589844 C 9.632812 15.519531 9.472656 15.425781 9.328125 15.296875 C 9.1875 15.171875 9.070312 15.023438 8.980469 14.855469 C 8.890625 14.6875 8.835938 14.507812 8.8125 14.320312 L 8.027344 8.0625 C 8 7.839844 8.019531 7.621094 8.085938 7.40625 C 8.152344 7.191406 8.257812 7 8.40625 6.832031 C 8.558594 6.664062 8.734375 6.535156 8.9375 6.441406 C 9.144531 6.347656 9.359375 6.304688 9.582031 6.304688 L 20.5625 6.304688 C 20.769531 6.304688 20.96875 6.34375 21.160156 6.421875 C 21.351562 6.5 21.523438 6.613281 21.667969 6.761719 C 21.816406 6.90625 21.929688 7.078125 22.011719 7.269531 C 22.089844 7.460938 22.128906 7.660156 22.128906 7.867188 C 22.128906 8.074219 22.089844 8.273438 22.011719 8.464844 C 21.929688 8.65625 21.816406 8.828125 21.667969 8.972656 C 21.523438 9.121094 21.351562 9.234375 21.160156 9.3125 C 20.96875 9.390625 20.769531 9.433594 20.5625 9.433594 L 11.359375 9.433594 L 11.753906 12.5625 L 19.777344 12.5625 C 20.003906 12.5625 20.222656 12.609375 20.429688 12.703125 C 20.636719 12.796875 20.8125 12.929688 20.960938 13.101562 C 21.109375 13.269531 21.21875 13.464844 21.28125 13.683594 C 21.34375 13.902344 21.363281 14.121094 21.328125 14.347656 L 20.546875 19.820312 C 20.503906 20.125 20.382812 20.390625 20.179688 20.621094 C 19.980469 20.851562 19.734375 21.011719 19.445312 21.097656 L 15.523438 22.273438 C 15.375 22.316406 15.226562 22.339844 15.070312 22.339844 Z M 15.070312 22.339844 "/></g></svg>