<svg xmlns="http://www.w3.org/2000/svg" xmlns:xlink="http://www.w3.org/1999/xlink" width="40" zoomAndPan="magnify" viewBox="0 0 30 30.000001" height="40" preserveAspectRatio="xMidYMid meet" version="1.2"><defs><clipPath id="be6524adc3"><path d="M 0.484375 0 L 29.515625 0 L 29.515625 29.03125 L 0.484375 29.03125 Z M 0.484375 0 "/></clipPath></defs><g id="de6082d2fc"><g clip-rule="nonzero" clip-path="url(#be6524adc3)"><path style=" stroke:none;fill-rule:nonzero;fill:#000000;fill-opacity:1;" d="M 28.910156 29.03125 L 1.089844 29.03125 C 0.753906 29.03125 0.484375 28.761719 0.484375 28.425781 L 0.484375 0.605469 C 0.484375 0.269531 0.753906 0 1.089844 0 L 28.910156 0 C 29.246094 0 29.515625 0.269531 29.515625 0.605469 L 29.515625 28.425781 C 29.515625 28.761719 29.246094 29.03125 28.910156 29.03125 Z M 1.695312 27.824219 L 28.304688 27.824219 L 28.304688 1.210938 L 1.695312 1.210938 Z M 12.324219 26.890625 C 11.328125 26.890625 10.40625 26.652344 9.625 26.183594 C 8.894531 25.746094 8.28125 25.046875 7.859375 24.171875 C 7.722656 23.890625 7.820312 23.554688 8.085938 23.390625 L 10.203125 22.085938 C 10.296875 22.03125 10.40625 21.996094 10.519531 21.996094 C 10.882812 21.996094 11.039062 22.273438 11.136719 22.4375 C 11.421875 22.917969 11.582031 23.121094 11.890625 23.277344 C 11.898438 23.273438 12.058594 23.316406 12.265625 23.316406 C 12.496094 23.316406 12.777344 23.257812 12.898438 23.003906 C 13.023438 22.738281 13.011719 21.714844 13.003906 20.964844 L 12.996094 20.121094 L 13.007812 13.390625 C 13.007812 13.058594 13.28125 12.789062 13.613281 12.789062 L 16.21875 12.789062 C 16.386719 12.789062 16.546875 12.859375 16.660156 12.980469 C 16.777344 13.105469 16.835938 13.269531 16.820312 13.4375 L 16.820312 15.855469 C 16.824219 17.449219 16.828125 19.035156 16.820312 20.625 L 16.828125 21.246094 C 16.847656 22.523438 16.867188 23.730469 16.285156 24.789062 C 15.84375 25.695312 14.964844 26.386719 13.820312 26.714844 C 13.308594 26.832031 12.808594 26.890625 12.324219 26.890625 Z M 9.214844 24.117188 C 9.5 24.558594 9.851562 24.910156 10.246094 25.148438 C 11.121094 25.671875 12.316406 25.816406 13.523438 25.546875 C 14.058594 25.390625 14.820312 25.027344 15.210938 24.234375 C 15.652344 23.429688 15.636719 22.429688 15.617188 21.269531 L 15.609375 20.625 C 15.617188 19.035156 15.613281 17.449219 15.609375 15.859375 L 15.609375 14 L 14.214844 14 L 14.207031 20.121094 L 14.210938 20.957031 C 14.226562 22.367188 14.222656 23.121094 13.964844 23.570312 C 13.503906 24.53125 12.363281 24.6875 11.445312 24.402344 C 10.875 24.125 10.566406 23.789062 10.324219 23.433594 Z M 10.515625 22.667969 L 10.046875 22.972656 Z M 10.542969 22.648438 L 10.554688 22.644531 Z M 22.324219 26.765625 C 20.695312 26.765625 19.070312 26.199219 18.097656 25.21875 L 17.839844 24.925781 C 17.535156 24.578125 17.269531 24.28125 17.035156 23.746094 C 16.910156 23.464844 17.019531 23.132812 17.289062 22.980469 L 19.410156 21.761719 C 19.6875 21.601562 20.039062 21.6875 20.214844 21.953125 C 20.757812 22.773438 21.160156 23.085938 21.878906 23.242188 C 22.488281 23.316406 23.082031 23.199219 23.328125 22.933594 C 23.371094 22.882812 23.511719 22.734375 23.4375 22.339844 C 23.324219 21.988281 22.535156 21.65625 21.773438 21.332031 C 21.03125 21.023438 20.195312 20.667969 19.472656 20.128906 C 18.574219 19.527344 17.957031 18.476562 17.804688 17.261719 C 17.652344 16.058594 17.984375 14.894531 18.722656 14.0625 C 19.222656 13.441406 20.066406 12.941406 21.011719 12.707031 L 21.898438 12.59375 C 23.625 12.554688 24.824219 12.996094 25.710938 13.988281 C 25.953125 14.222656 26.140625 14.496094 26.445312 14.972656 C 26.535156 15.105469 26.5625 15.273438 26.527344 15.429688 C 26.492188 15.589844 26.394531 15.726562 26.257812 15.808594 C 25.425781 16.328125 25.425781 16.328125 24.234375 17.105469 C 24.085938 17.203125 23.90625 17.230469 23.738281 17.183594 C 23.570312 17.132812 23.429688 17.015625 23.355469 16.859375 C 23.183594 16.492188 22.910156 16.234375 22.59375 16.132812 C 22.328125 16.054688 22.007812 16.078125 21.808594 16.195312 C 21.660156 16.28125 21.621094 16.386719 21.605469 16.457031 C 21.578125 16.554688 21.554688 16.628906 21.652344 16.976562 C 21.753906 17.191406 22.324219 17.4375 22.875 17.675781 C 23.054688 17.753906 23.234375 17.832031 23.410156 17.914062 C 25.777344 18.875 26.964844 20.042969 27.230469 21.695312 C 27.242188 21.773438 27.238281 21.851562 27.222656 21.925781 C 27.328125 22.824219 27.179688 23.476562 27.070312 23.804688 C 26.671875 25.171875 25.554688 26.15625 23.933594 26.570312 C 23.410156 26.703125 22.867188 26.765625 22.324219 26.765625 Z M 18.414062 23.730469 C 18.503906 23.855469 18.613281 23.972656 18.742188 24.121094 L 18.984375 24.398438 C 19.957031 25.375 21.96875 25.820312 23.632812 25.398438 C 24.324219 25.226562 25.535156 24.742188 25.910156 23.457031 C 25.984375 23.226562 26.128906 22.652344 25.980469 21.820312 C 25.96875 21.753906 25.96875 21.6875 25.980469 21.625 C 25.78125 20.835938 25.167969 19.933594 22.921875 19.023438 C 22.730469 18.933594 22.5625 18.859375 22.394531 18.789062 C 21.628906 18.460938 20.835938 18.117188 20.515625 17.382812 C 20.367188 16.878906 20.316406 16.535156 20.433594 16.148438 C 20.53125 15.742188 20.796875 15.382812 21.199219 15.148438 C 21.691406 14.863281 22.34375 14.796875 22.945312 14.976562 C 23.390625 15.117188 23.78125 15.386719 24.082031 15.757812 C 24.570312 15.441406 24.78125 15.304688 25.082031 15.117188 C 24.992188 14.992188 24.917969 14.90625 24.832031 14.824219 C 24.152344 14.066406 23.316406 13.765625 21.984375 13.800781 L 21.230469 13.898438 C 20.613281 14.054688 19.992188 14.410156 19.640625 14.84375 C 19.121094 15.433594 18.894531 16.253906 19.003906 17.113281 C 19.113281 17.964844 19.546875 18.726562 20.167969 19.144531 C 20.796875 19.613281 21.53125 19.921875 22.238281 20.222656 C 23.328125 20.679688 24.359375 21.113281 24.609375 22.046875 C 24.609375 22.058594 24.613281 22.070312 24.617188 22.082031 C 24.789062 22.917969 24.492188 23.457031 24.214844 23.757812 C 23.691406 24.324219 22.761719 24.570312 21.671875 24.4375 C 20.65625 24.214844 20.046875 23.738281 19.535156 23.085938 Z M 18.414062 23.730469 "/></g></g></svg>