<svg xmlns="http://www.w3.org/2000/svg" xmlns:xlink="http://www.w3.org/1999/xlink" width="100" zoomAndPan="magnify" viewBox="0 0 75.119995 45.12" height="50" preserveAspectRatio="xMidYMid meet" version="1.2"><defs><clipPath id="5a3444ec42"><path d="M 0.285156 0.847656 L 73.851562 0.847656 L 73.851562 36 L 0.285156 36 Z M 0.285156 0.847656 "/></clipPath></defs><g id="3dfaa6c91a"><g clip-rule="nonzero" clip-path="url(#5a3444ec42)"><path style=" stroke:none;fill-rule:evenodd;fill:#747c81;fill-opacity:1;" d="M 19.757812 0.847656 L 23.09375 0.847656 C 23.261719 0.847656 23.398438 0.988281 23.398438 1.160156 L 23.398438 34.738281 C 23.398438 34.824219 23.371094 34.898438 23.308594 34.957031 C 23.25 35.019531 23.175781 35.046875 23.09375 35.050781 L 19.757812 35.050781 C 19.671875 35.046875 19.601562 35.019531 19.542969 34.957031 C 19.480469 34.898438 19.453125 34.824219 19.449219 34.738281 L 19.449219 1.160156 C 19.449219 0.988281 19.589844 0.847656 19.757812 0.847656 Z M 42.671875 28.480469 L 42.671875 29.324219 C 42.671875 29.691406 42.617188 30.199219 42.476562 30.847656 C 42.363281 31.46875 42.027344 32.117188 41.496094 32.738281 C 40.964844 33.359375 40.179688 33.921875 39.113281 34.371094 C 38.050781 34.824219 36.59375 35.050781 34.71875 35.050781 C 32.839844 35.050781 31.382812 34.824219 30.320312 34.371094 C 29.253906 33.921875 28.46875 33.386719 27.9375 32.738281 C 27.40625 32.117188 27.070312 31.46875 26.957031 30.820312 C 26.84375 30.171875 26.761719 29.691406 26.761719 29.324219 L 26.761719 10.210938 C 26.761719 10.039062 26.902344 9.898438 27.070312 9.898438 L 30.402344 9.898438 C 30.570312 9.898438 30.710938 10.039062 30.710938 10.210938 L 30.710938 28.113281 C 30.710938 28.707031 30.792969 29.128906 30.878906 29.46875 C 30.964844 29.804688 31.128906 30.144531 31.382812 30.425781 C 31.636719 30.734375 32.027344 30.988281 32.558594 31.1875 C 33.0625 31.382812 33.765625 31.496094 34.632812 31.496094 C 35.53125 31.496094 36.257812 31.382812 36.789062 31.1875 C 37.320312 30.988281 37.714844 30.734375 37.992188 30.453125 C 38.273438 30.171875 38.46875 29.859375 38.554688 29.523438 C 38.636719 29.183594 38.75 28.902344 38.75 28.085938 L 38.75 10.210938 C 38.75 10.039062 38.890625 9.898438 39.058594 9.898438 L 42.390625 9.898438 C 42.558594 9.898438 42.699219 10.039062 42.699219 10.210938 L 42.699219 28.480469 Z M 54.015625 9.898438 L 56.257812 9.898438 C 56.453125 9.898438 56.59375 10.097656 56.539062 10.292969 L 55.78125 13.226562 C 55.753906 13.367188 55.613281 13.453125 55.5 13.453125 L 53.933594 13.453125 C 53.089844 13.453125 52.417969 13.566406 51.886719 13.789062 C 51.382812 14.015625 50.964844 14.269531 50.683594 14.578125 C 50.429688 14.847656 50.253906 15.15625 50.152344 15.511719 C 50.066406 15.847656 50.039062 16.160156 50.039062 16.441406 L 50.039062 34.765625 C 50.039062 34.851562 50.007812 34.925781 49.949219 34.984375 C 49.886719 35.046875 49.816406 35.078125 49.730469 35.078125 L 46.371094 35.078125 C 46.285156 35.078125 46.210938 35.046875 46.152344 34.984375 C 46.09375 34.925781 46.0625 34.851562 46.0625 34.765625 L 46.0625 15.652344 C 46.0625 15.3125 46.117188 14.804688 46.257812 14.15625 C 46.371094 13.507812 46.707031 12.886719 47.238281 12.238281 C 47.769531 11.617188 48.554688 11.054688 49.617188 10.605469 C 50.65625 10.125 52.140625 9.898438 54.015625 9.898438 Z M 8.21875 9.898438 C 10.933594 9.898438 12.921875 10.433594 14.210938 11.507812 C 15.472656 12.578125 16.117188 13.933594 16.117188 15.539062 L 16.117188 29.355469 C 16.117188 29.917969 16.003906 30.539062 15.808594 31.1875 C 15.613281 31.863281 15.21875 32.484375 14.632812 33.019531 C 14.042969 33.582031 13.230469 34.035156 12.222656 34.429688 C 11.214844 34.796875 9.871094 34.992188 8.246094 34.992188 C 6.59375 34.992188 5.277344 34.796875 4.269531 34.429688 C 3.261719 34.0625 2.445312 33.582031 1.859375 33.019531 C 1.269531 32.457031 0.878906 31.835938 0.683594 31.1875 C 0.488281 30.511719 0.375 29.890625 0.375 29.355469 L 0.375 27.15625 C 0.375 25.972656 0.683594 24.898438 1.269531 23.941406 C 1.886719 22.980469 2.726562 22.277344 3.847656 21.882812 C 4.410156 21.683594 5.027344 21.488281 5.753906 21.234375 C 6.453125 20.980469 7.152344 20.753906 7.824219 20.5 C 8.496094 20.273438 9.058594 20.050781 9.5625 19.878906 C 10.066406 19.683594 10.375 19.597656 10.488281 19.542969 C 10.597656 19.484375 10.765625 19.402344 10.960938 19.289062 C 11.160156 19.175781 11.355469 19.007812 11.550781 18.808594 C 11.746094 18.582031 11.886719 18.332031 12.027344 18.078125 C 12.167969 17.792969 12.222656 17.457031 12.222656 17.089844 L 12.222656 16.214844 C 12.222656 15.90625 12.167969 15.59375 12.027344 15.257812 C 11.914062 14.917969 11.691406 14.636719 11.382812 14.355469 C 11.074219 14.074219 10.65625 13.847656 10.148438 13.675781 C 9.644531 13.507812 9.003906 13.425781 8.21875 13.425781 C 6.679688 13.425781 5.640625 13.734375 5.082031 14.382812 C 4.585938 14.96875 4.3125 15.644531 4.269531 16.410156 C 4.269531 16.582031 4.128906 16.695312 3.960938 16.695312 L 0.597656 16.695312 C 0.515625 16.695312 0.441406 16.664062 0.382812 16.601562 C 0.320312 16.542969 0.292969 16.46875 0.289062 16.382812 L 0.289062 15.566406 C 0.289062 14.777344 0.429688 14.042969 0.738281 13.367188 C 1.019531 12.691406 1.496094 12.070312 2.167969 11.5625 C 2.8125 11.054688 3.625 10.632812 4.632812 10.351562 C 5.613281 10.070312 6.816406 9.898438 8.21875 9.898438 Z M 12.195312 22.277344 C 12.140625 22.582031 11.984375 22.820312 11.71875 22.980469 C 11.46875 23.152344 11.242188 23.234375 11.019531 23.320312 C 10.542969 23.488281 10.039062 23.660156 9.507812 23.855469 C 8.976562 24.054688 8.46875 24.25 7.992188 24.390625 C 7.433594 24.589844 6.902344 24.757812 6.425781 24.953125 C 6.042969 25.125 5.6875 25.339844 5.363281 25.605469 C 5.082031 25.855469 4.828125 26.167969 4.601562 26.5625 C 4.378906 26.957031 4.269531 27.4375 4.269531 28.027344 C 4.269531 29.214844 4.546875 30.085938 5.109375 30.679688 C 5.667969 31.242188 6.703125 31.550781 8.21875 31.550781 C 9.757812 31.550781 10.824219 31.242188 11.382812 30.652344 C 11.941406 30.03125 12.222656 29.183594 12.222656 28.058594 L 12.222656 22.277344 Z M 65.949219 9.898438 C 68.664062 9.898438 70.65625 10.433594 71.945312 11.507812 C 73.203125 12.578125 73.847656 13.933594 73.847656 15.539062 L 73.847656 29.355469 C 73.847656 29.917969 73.738281 30.539062 73.539062 31.1875 C 73.34375 31.863281 72.953125 32.484375 72.363281 33.019531 C 71.773438 33.582031 70.960938 34.035156 69.953125 34.429688 C 68.945312 34.796875 67.601562 34.992188 65.976562 34.992188 C 64.324219 34.992188 63.007812 34.796875 62 34.429688 C 60.992188 34.0625 60.179688 33.582031 59.589844 33.019531 C 59.003906 32.457031 58.609375 31.835938 58.414062 31.1875 C 58.21875 30.511719 58.105469 29.890625 58.105469 29.355469 L 58.105469 27.15625 C 58.105469 25.972656 58.414062 24.898438 59.003906 23.941406 C 59.617188 22.980469 60.457031 22.277344 61.578125 21.882812 C 62.140625 21.683594 62.757812 21.488281 63.484375 21.234375 C 64.183594 20.980469 64.882812 20.753906 65.558594 20.5 C 66.230469 20.273438 66.789062 20.050781 67.292969 19.878906 C 67.796875 19.683594 68.105469 19.597656 68.21875 19.542969 C 68.332031 19.484375 68.496094 19.402344 68.695312 19.289062 C 68.890625 19.175781 69.085938 19.007812 69.28125 18.808594 C 69.480469 18.582031 69.617188 18.332031 69.757812 18.078125 C 69.898438 17.792969 69.953125 17.457031 69.953125 17.089844 L 69.953125 16.214844 C 69.953125 15.90625 69.898438 15.59375 69.757812 15.257812 C 69.648438 14.917969 69.421875 14.636719 69.113281 14.355469 C 68.808594 14.074219 68.386719 13.847656 67.882812 13.675781 C 67.378906 13.507812 66.734375 13.425781 65.949219 13.425781 C 64.40625 13.425781 63.371094 13.734375 62.8125 14.382812 C 62.316406 14.96875 62.046875 15.644531 62 16.410156 C 62 16.582031 61.859375 16.695312 61.691406 16.695312 L 58.328125 16.695312 C 58.246094 16.695312 58.171875 16.664062 58.113281 16.601562 C 58.054688 16.542969 58.023438 16.46875 58.023438 16.382812 L 58.023438 15.566406 C 58.023438 14.777344 58.164062 14.042969 58.46875 13.367188 C 58.75 12.691406 59.226562 12.070312 59.898438 11.5625 C 60.542969 11.054688 61.355469 10.632812 62.363281 10.351562 C 63.371094 10.070312 64.546875 9.898438 65.949219 9.898438 Z M 69.925781 22.277344 C 69.871094 22.582031 69.714844 22.820312 69.449219 22.980469 C 69.199219 23.152344 68.976562 23.234375 68.75 23.320312 C 68.273438 23.488281 67.769531 23.660156 67.238281 23.855469 C 66.707031 24.054688 66.203125 24.25 65.726562 24.390625 C 65.164062 24.589844 64.632812 24.757812 64.15625 24.953125 C 63.773438 25.125 63.417969 25.339844 63.09375 25.605469 C 62.8125 25.855469 62.558594 26.167969 62.335938 26.5625 C 62.113281 26.957031 62 27.4375 62 28.027344 C 62 29.214844 62.28125 30.085938 62.839844 30.679688 C 63.398438 31.242188 64.4375 31.550781 65.949219 31.550781 C 67.488281 31.550781 68.554688 31.242188 69.113281 30.652344 C 69.675781 30.03125 69.953125 29.183594 69.953125 28.058594 L 69.953125 22.277344 Z M 69.925781 22.277344 "/></g></g></svg>