<svg xmlns="http://www.w3.org/2000/svg" xmlns:xlink="http://www.w3.org/1999/xlink" width="40" zoomAndPan="magnify" viewBox="0 0 30 30.000001" height="40" preserveAspectRatio="xMidYMid meet" version="1.2"><defs><clipPath id="050dfdcda7"><path d="M 0.484375 1.269531 L 29.515625 1.269531 L 29.515625 28 L 0.484375 28 Z M 0.484375 1.269531 "/></clipPath></defs><g id="18424b87eb"><g clip-rule="nonzero" clip-path="url(#050dfdcda7)"><path style=" stroke:none;fill-rule:nonzero;fill:#000000;fill-opacity:1;" d="M 20.984375 1.324219 C 20.496094 1.308594 19.984375 1.394531 19.472656 1.5625 C 18.445312 1.898438 17.375 2.554688 16.269531 3.464844 C 15.839844 3.820312 15.402344 4.226562 14.964844 4.660156 C 14.539062 4.238281 14.109375 3.839844 13.6875 3.492188 C 12.585938 2.585938 11.515625 1.929688 10.492188 1.59375 C 9.472656 1.257812 8.453125 1.246094 7.617188 1.734375 C 6.78125 2.222656 6.28125 3.121094 6.058594 4.1875 C 5.835938 5.253906 5.859375 6.523438 6.082031 7.945312 C 6.160156 8.4375 6.273438 8.957031 6.402344 9.484375 C 5.921875 9.628906 5.460938 9.785156 5.03125 9.953125 C 3.730469 10.46875 2.65625 11.082031 1.875 11.8125 C 1.09375 12.546875 0.589844 13.433594 0.589844 14.40625 C 0.589844 15.382812 1.09375 16.269531 1.875 17 C 2.65625 17.730469 3.730469 18.347656 5.03125 18.863281 C 5.488281 19.042969 5.988281 19.207031 6.5 19.363281 C 6.316406 20.0625 6.167969 20.742188 6.0625 21.386719 C 5.839844 22.808594 5.816406 24.078125 6.039062 25.144531 C 6.265625 26.214844 6.765625 27.117188 7.605469 27.609375 C 8.445312 28.101562 9.464844 28.089844 10.492188 27.75 C 11.515625 27.414062 12.589844 26.757812 13.691406 25.851562 C 14.117188 25.496094 14.550781 25.09375 14.984375 24.667969 C 15.421875 25.097656 15.855469 25.503906 16.285156 25.855469 C 17.386719 26.765625 18.460938 27.421875 19.480469 27.757812 C 20.503906 28.09375 21.519531 28.101562 22.355469 27.613281 C 23.191406 27.125 23.691406 26.226562 23.917969 25.160156 C 24.140625 24.09375 24.117188 22.824219 23.890625 21.40625 C 23.789062 20.757812 23.636719 20.078125 23.453125 19.375 C 23.984375 19.21875 24.496094 19.050781 24.96875 18.863281 C 26.269531 18.347656 27.34375 17.730469 28.125 17 C 28.90625 16.269531 29.410156 15.382812 29.410156 14.40625 C 29.410156 13.433594 28.90625 12.546875 28.125 11.8125 C 27.34375 11.082031 26.269531 10.46875 24.96875 9.953125 C 24.535156 9.78125 24.0625 9.625 23.578125 9.476562 C 23.707031 8.945312 23.820312 8.425781 23.898438 7.929688 C 24.125 6.503906 24.148438 5.234375 23.921875 4.167969 C 23.699219 3.097656 23.199219 2.195312 22.359375 1.707031 C 21.9375 1.460938 21.472656 1.339844 20.984375 1.324219 Z M 20.925781 2.617188 C 21.234375 2.625 21.496094 2.699219 21.71875 2.828125 C 22.164062 3.089844 22.496094 3.601562 22.671875 4.4375 C 22.847656 5.277344 22.84375 6.410156 22.632812 7.722656 C 22.5625 8.171875 22.460938 8.648438 22.339844 9.136719 C 21.0625 8.824219 19.65625 8.59375 18.160156 8.457031 C 17.410156 7.402344 16.636719 6.441406 15.859375 5.589844 C 16.269531 5.183594 16.679688 4.800781 17.078125 4.472656 C 18.097656 3.632812 19.0625 3.0625 19.867188 2.796875 C 20.269531 2.664062 20.621094 2.605469 20.925781 2.617188 Z M 9.042969 2.621094 C 9.351562 2.609375 9.703125 2.667969 10.105469 2.800781 C 10.914062 3.066406 11.878906 3.636719 12.898438 4.476562 C 13.289062 4.800781 13.6875 5.171875 14.089844 5.570312 C 13.308594 6.429688 12.53125 7.398438 11.773438 8.464844 C 10.28125 8.601562 8.882812 8.835938 7.609375 9.152344 C 7.492188 8.664062 7.390625 8.191406 7.320312 7.742188 C 7.109375 6.425781 7.105469 5.292969 7.28125 4.453125 C 7.460938 3.613281 7.792969 3.097656 8.246094 2.835938 C 8.46875 2.703125 8.734375 2.628906 9.042969 2.621094 Z M 14.984375 6.503906 C 15.496094 7.066406 16.003906 7.683594 16.511719 8.34375 C 16.015625 8.324219 15.511719 8.3125 15 8.3125 C 14.480469 8.3125 13.964844 8.324219 13.457031 8.34375 C 13.964844 7.683594 14.476562 7.066406 14.984375 6.503906 Z M 15 9.59375 C 15.851562 9.59375 16.683594 9.628906 17.488281 9.6875 C 18.042969 10.496094 18.585938 11.355469 19.105469 12.265625 C 19.558594 13.0625 19.972656 13.859375 20.34375 14.644531 C 19.96875 15.445312 19.550781 16.25 19.089844 17.058594 C 18.683594 17.773438 18.257812 18.449219 17.828125 19.101562 C 16.914062 19.179688 15.972656 19.222656 15 19.222656 C 14.003906 19.222656 13.039062 19.175781 12.105469 19.09375 C 11.683594 18.453125 11.265625 17.785156 10.867188 17.082031 C 10.40625 16.277344 9.992188 15.472656 9.613281 14.675781 C 9.992188 13.875 10.410156 13.066406 10.875 12.253906 C 11.390625 11.347656 11.929688 10.496094 12.484375 9.691406 C 13.296875 9.628906 14.136719 9.59375 15 9.59375 Z M 19.101562 9.847656 C 20.132812 9.976562 21.105469 10.160156 22.003906 10.375 C 21.738281 11.265625 21.40625 12.195312 21.007812 13.15625 C 20.75 12.648438 20.480469 12.140625 20.191406 11.628906 C 19.839844 11.011719 19.472656 10.421875 19.101562 9.847656 Z M 10.832031 9.855469 C 10.46875 10.421875 10.113281 11 9.765625 11.605469 C 9.472656 12.121094 9.199219 12.636719 8.9375 13.148438 C 8.539062 12.195312 8.210938 11.273438 7.945312 10.386719 C 8.84375 10.171875 9.804688 9.988281 10.832031 9.855469 Z M 23.246094 10.714844 C 23.6875 10.851562 24.117188 10.992188 24.511719 11.148438 C 25.707031 11.621094 26.652344 12.183594 27.265625 12.757812 C 27.878906 13.328125 28.144531 13.878906 28.144531 14.40625 C 28.144531 14.9375 27.878906 15.484375 27.265625 16.058594 C 26.652344 16.632812 25.707031 17.195312 24.511719 17.667969 C 24.074219 17.839844 23.59375 17.996094 23.09375 18.144531 C 22.738281 17.03125 22.285156 15.863281 21.742188 14.675781 C 22.363281 13.308594 22.867188 11.980469 23.246094 10.714844 Z M 6.734375 10.71875 C 7.109375 11.972656 7.605469 13.289062 8.21875 14.640625 C 7.671875 15.839844 7.214844 17.011719 6.859375 18.132812 C 6.375 17.988281 5.914062 17.835938 5.488281 17.667969 C 4.292969 17.195312 3.347656 16.632812 2.734375 16.058594 C 2.121094 15.484375 1.855469 14.9375 1.855469 14.40625 C 1.855469 13.878906 2.121094 13.328125 2.734375 12.757812 C 3.347656 12.183594 4.292969 11.621094 5.488281 11.148438 C 5.875 10.996094 6.296875 10.855469 6.734375 10.71875 Z M 15 11.492188 C 13.277344 11.492188 11.867188 12.921875 11.867188 14.664062 C 11.867188 16.410156 13.277344 17.839844 15 17.839844 C 16.722656 17.839844 18.132812 16.410156 18.132812 14.664062 C 18.132812 12.921875 16.722656 11.492188 15 11.492188 Z M 15 12.761719 C 16.046875 12.761719 16.878906 13.605469 16.878906 14.664062 C 16.878906 15.726562 16.046875 16.570312 15 16.570312 C 13.953125 16.570312 13.121094 15.726562 13.121094 14.664062 C 13.121094 13.605469 13.953125 12.761719 15 12.761719 Z M 21.023438 16.167969 C 21.351562 16.953125 21.636719 17.726562 21.878906 18.46875 C 21.125 18.644531 20.324219 18.796875 19.480469 18.914062 C 19.722656 18.519531 19.960938 18.121094 20.195312 17.707031 C 20.488281 17.195312 20.761719 16.679688 21.023438 16.167969 Z M 8.953125 16.167969 C 9.214844 16.683594 9.488281 17.199219 9.785156 17.71875 C 10.015625 18.125 10.25 18.519531 10.492188 18.910156 C 9.648438 18.789062 8.851562 18.640625 8.101562 18.464844 C 8.339844 17.722656 8.625 16.953125 8.953125 16.167969 Z M 7.738281 19.695312 C 8.871094 19.96875 10.101562 20.175781 11.402344 20.3125 C 12.273438 21.589844 13.179688 22.734375 14.089844 23.734375 C 13.683594 24.140625 13.28125 24.515625 12.882812 24.84375 C 11.867188 25.683594 10.902344 26.253906 10.097656 26.515625 C 9.292969 26.78125 8.691406 26.746094 8.246094 26.484375 C 7.796875 26.222656 7.46875 25.714844 7.292969 24.875 C 7.113281 24.039062 7.121094 22.90625 7.328125 21.59375 C 7.421875 20.996094 7.5625 20.359375 7.738281 19.695312 Z M 22.238281 19.703125 C 22.417969 20.367188 22.558594 21.007812 22.652344 21.605469 C 22.863281 22.921875 22.867188 24.054688 22.691406 24.894531 C 22.511719 25.738281 22.179688 26.25 21.730469 26.515625 C 21.277344 26.777344 20.675781 26.8125 19.867188 26.546875 C 19.058594 26.285156 18.09375 25.710938 17.074219 24.871094 C 16.675781 24.542969 16.269531 24.164062 15.859375 23.757812 C 16.777344 22.75 17.691406 21.597656 18.566406 20.316406 C 19.871094 20.179688 21.105469 19.972656 22.238281 19.703125 Z M 13.039062 20.445312 C 13.679688 20.480469 14.332031 20.503906 15 20.503906 C 15.644531 20.503906 16.277344 20.480469 16.898438 20.449219 C 16.261719 21.316406 15.613281 22.109375 14.96875 22.824219 C 14.320312 22.109375 13.671875 21.316406 13.039062 20.445312 Z M 13.039062 20.445312 "/></g></g></svg>